<svg version="1.1" xmlns="http://www.w3.org/2000/svg" x="0" y="0" viewBox="-5 -5 44.5 44.5" xml:space="preserve">
	<path d="M17.2 0c-3.4 0-6.7 1-9.5 2.9s-5 4.6-6.3 7.7c-1.3 3.2-1.6 6.6-1 10S2.6 27 5 29.4c2.4 2.4 5.5 4.1 8.8 4.7 3.3.7 6.8.3 9.9-1 3.1-1.3 5.8-3.5 7.7-6.4 1.9-2.8 2.9-6.2 2.9-9.6 0-4.6-1.8-9-5-12.2C26.1 1.8 21.7 0 17.2 0zm-16 17.9h5.3c0 2.4.4 4.8 1.1 7.1H3.2c-1.2-2.2-1.9-4.7-2-7.1zm16.6-9.6v-7c3 .3 5.6 3 7.2 7h-7.2zm7.6 1.2c.7 2.3 1.1 4.7 1.2 7.1h-8.8V9.5h7.6zm-8.9-8.2v7H9.3c1.6-4 4.3-6.7 7.2-7zm0 8.2v7.1H7.7c0-2.4.4-4.8 1.2-7.1h7.6zm-10 7.1H1.2c.1-2.5.8-4.9 2-7.1h4.4c-.7 2.3-1 4.7-1.1 7.1zm1.2 1.3h8.8V25H8.9c-.7-2.3-1.1-4.7-1.2-7.1zm8.8 8.3v7c-3-.3-5.6-3-7.2-7h7.2zm1.3 7v-7.1H25c-1.6 4.1-4.2 6.8-7.2 7.1zm0-8.3v-7.1h8.8c0 2.4-.4 4.8-1.2 7.1h-7.6zm10-7h5.3c-.1 2.5-.8 4.9-2 7.1h-4.4c.7-2.4 1.1-4.7 1.1-7.1zm0-1.3c0-2.4-.4-4.8-1.1-7.1h4.4c1.2 2.2 1.9 4.6 2 7.1h-5.3zm2.6-8.3h-4.1c-.4-1.1-.9-2.1-1.5-3.1-.7-1.2-1.5-2.2-2.5-3.1 3.3 1.1 6.1 3.3 8.1 6.2zM12 2.1c-.9.9-1.8 1.9-2.5 3.1-.6 1-1.1 2-1.5 3.1H3.9c2-2.9 4.8-5.1 8.1-6.2zM3.9 26.2H8c.4 1.1.9 2.1 1.5 3.1.7 1.1 1.5 2.2 2.5 3.1-3.3-1.1-6.1-3.3-8.1-6.2zm18.4 6.2c1-.9 1.8-1.9 2.5-3.1.6-1 1.1-2.1 1.5-3.1h4.1c-2 2.9-4.8 5.1-8.1 6" fill="currentColor"/>
</svg>
