<?xml version="1.0" encoding="UTF-8" standalone="no"?>
<svg
   version="1.1"
   width="256"
   height="256"
   viewBox="15 15 79.92 93.84"
   xmlns="http://www.w3.org/2000/svg"
   xmlns:svg="http://www.w3.org/2000/svg">
  <g>
	  <g id="group-R5">
	      <path
	         id="path2"
	         d="M 345.598,445.746 327,445.719 c -2.191,0 -4.062,0.097 -4.602,2.594 -0.703,3.23 2.348,3.871 2.348,3.871 -0.266,-0.192 -1.019,-1.61 -0.422,-3.094 0.539,-1.336 1.637,-1.137 3.473,-1.137 l 20.793,0.02 c 0,-2.02 -2.992,-2.227 -2.992,-2.227"
	         style="fill:#ffffff;fill-opacity:1;fill-rule:nonzero;stroke:none"
	         transform="matrix(0.13333333,0,0,-0.13333333,0,123.84)" />
	      <path
	         id="path3"
	         d="m 340.574,364.918 h -9.043 c -1.539,0.004 -2.926,0.293 -3.488,1.996 -0.688,2.051 1.586,2.531 1.586,2.531 -0.176,-0.14 -0.473,-0.8 -0.047,-1.84 0.379,-0.945 1.227,-0.882 2.523,-0.894 l 10.583,-0.055 c 0.003,-1.742 -2.114,-1.738 -2.114,-1.738"
	         style="fill:#ffffff;fill-opacity:1;fill-rule:nonzero;stroke:none"
	         transform="matrix(0.13333333,0,0,-0.13333333,0,123.84)" />
	      <path
	         id="path4"
	         d="m 348.316,443.82 -25.086,-0.039 c -2.375,0 -4.519,2.043 -4.527,5.137 0,2.949 2.168,5.098 4.516,5.098 l 25.09,0.027 c 2.332,0 4.527,-2.258 4.535,-5.086 0,-2.848 -2.192,-5.137 -4.528,-5.137 z m -6.097,-6.265 -12.852,-0.008 c -2.203,-0.012 -4.172,1.027 -5.422,2.66 l 23.668,0.027 c -1.238,-1.629 -3.199,-2.668 -5.394,-2.679 z m -8.989,-3.946 c 2.739,-0.113 6.297,-0.082 9.989,0.403 l -2.641,-58.828 -6.301,-0.016 z m -5.089,0.411 c 0,0 0.914,-0.129 2.433,-0.25 l 2.176,-58.602 -1.691,-0.004 z m 18.922,-66.844 c 0,-2.367 -1.985,-4.41 -4.411,-4.41 l -13.535,-0.02 c -2.445,-0.008 -4.429,1.961 -4.429,4.402 0,2.399 1.968,4.415 4.417,4.422 l 13.54,0.016 c 2.433,0.004 4.418,-1.981 4.418,-4.41 z m -8.274,-32.039 c 0,-1.61 -1.18,-2.91 -2.871,-2.91 -1.578,-0.004 -2.875,1.304 -2.875,2.906 l -1.191,24.004 h 1.5 l 0.859,-23.215 c 0,-1.75 0.812,-2.106 0.812,-2.106 l -0.453,25.321 5.297,0.008 z m -22.25,130.965 c 0,3.16 1.285,5.789 2.649,8.566 1.656,3.387 3.5,7.133 2.625,11.875 1.738,-0.664 3.949,-1.844 5.863,-3.758 -1.215,-1.472 -2.551,-2.91 -3.289,-3.797 -5.114,-6.093 -7.09,-13.343 -1.598,-21.429 h -0.785 c -0.051,0.011 -5.457,1.933 -5.465,8.543 z m 18.082,26.808 c 4.574,-3.699 10.219,-10.668 10.234,-18.676 0,-7.23 -6.195,-15.527 -7.675,-16.593 -1.2,1.621 -2.688,4.652 -2.7,8.093 -0.015,5.965 2.903,9.457 2.903,9.457 0,0 -4.305,-2.777 -4.934,-8.296 -0.308,-2.7 0.281,-5.528 2.106,-9.254 h -2.614 c -0.703,1.125 -5.742,7.422 -1.546,14.531 0.703,1.168 3.863,5.738 4.257,6.668 0.493,1.125 0.442,2.183 0.442,2.183 -0.524,-0.855 -1.426,-1.871 -1.426,-1.871 -0.914,-0.996 -3.996,-4.199 -4.973,-5.379 -6.027,-7.32 -0.164,-15.46 0.118,-16.144 -0.313,0 -2.446,0 -2.446,0 -2.687,3.07 -3.578,6.062 -3.308,10.562 0.601,10.114 12.777,11.383 11.562,24.719 z m 16.832,-8.574 c -1.242,-7.613 1.031,-13.836 1.406,-14.773 2.149,-7.7 -3.671,-11.254 -4.957,-11.942 l -0.175,0.035 -5.84,-0.008 c 3.644,4.778 6.562,11.02 6.562,16.586 -0.011,1.696 -0.183,3.297 -0.504,4.836 l -0.488,1.633 c 1.481,1.719 2.863,2.902 3.996,3.633 z m 1.027,-28.047 c 3.086,2.774 5.907,7.594 3.958,14.402 l -0.083,0.204 c -0.027,0.066 -3.085,7.64 -0.433,16.074 l 0.891,2.789 -2.899,-0.363 c -0.422,-0.047 -3.824,-0.586 -7.965,-4.747 -3.449,6.969 -10.027,12.172 -16.863,15.594 2.512,-8.004 2.844,-10.937 0.781,-14.351 -4.672,4.355 -10.355,5.195 -10.613,5.226 l -3.289,0.453 1.328,-3.054 c 2.113,-4.875 0.453,-8.258 -1.48,-12.196 -1.418,-2.898 -3.028,-6.183 -3.028,-10.23 0.004,-5.313 2.699,-8.719 5.25,-10.57 -1.785,-1.622 -2.937,-4.004 -2.926,-6.614 0,-3.351 1.707,-6.265 4.305,-7.715 0.848,-2.617 2.672,-4.773 5.063,-6.043 L 327.465,375 c -3.652,-0.766 -6.379,-4.035 -6.367,-7.855 0,-4.133 3.132,-7.547 7.144,-7.961 l 1.207,-24.114 c 0,-3.566 2.899,-6.457 6.469,-6.453 3.727,0 6.434,2.899 6.473,6.391 l 1.082,24.187 c 4.058,0.426 7.191,3.942 7.179,7.985 0,3.902 -2.789,7.156 -6.476,7.855 l 2.676,60.016 c 2.523,1.258 4.464,3.504 5.32,6.242 2.598,1.523 4.266,4.555 4.266,7.672 -0.008,2.937 -1.567,5.75 -3.958,7.324"
	         style="fill:#ffffff;fill-opacity:1;fill-rule:nonzero;stroke:none"
	         transform="matrix(0.13333333,0,0,-0.13333333,0,123.84)" />
	      <path
	         id="path5"
	         d="m 495.664,445.746 -18.598,-0.027 c -2.187,0 -4.058,0.097 -4.597,2.594 -0.703,3.23 2.347,3.871 2.347,3.871 -0.261,-0.192 -1.011,-1.61 -0.421,-3.094 0.539,-1.336 1.636,-1.137 3.472,-1.137 l 20.793,0.02 c 0,-2.02 -2.996,-2.227 -2.996,-2.227"
	         style="fill:#ffffff;fill-opacity:1;fill-rule:nonzero;stroke:none"
	         transform="matrix(0.13333333,0,0,-0.13333333,0,123.84)" />
	      <path
	         id="path6"
	         d="m 490.645,364.918 h -9.043 c -1.543,0.004 -2.926,0.293 -3.493,1.996 -0.683,2.051 1.59,2.531 1.59,2.531 -0.176,-0.14 -0.472,-0.8 -0.051,-1.84 0.383,-0.945 1.231,-0.882 2.528,-0.894 l 10.582,-0.055 c 0.004,-1.742 -2.113,-1.738 -2.113,-1.738"
	         style="fill:#ffffff;fill-opacity:1;fill-rule:nonzero;stroke:none"
	         transform="matrix(0.13333333,0,0,-0.13333333,0,123.84)" />
	      <path
	         id="path7"
	         d="m 498.391,443.82 -25.094,-0.039 c -2.375,0 -4.52,2.043 -4.527,5.137 0,2.949 2.171,5.098 4.519,5.098 l 25.09,0.027 c 2.332,0 4.527,-2.258 4.535,-5.086 0,-2.848 -2.195,-5.137 -4.523,-5.137 z m -6.102,-6.265 -12.855,-0.008 c -2.2,-0.012 -4.161,1.027 -5.418,2.66 l 23.668,0.027 c -1.239,-1.629 -3.2,-2.668 -5.395,-2.679 z m -8.992,-3.946 c 2.738,-0.113 6.308,-0.082 9.988,0.403 l -2.637,-58.828 -6.3,-0.016 z m -5.086,0.411 c 0,0 0.914,-0.129 2.434,-0.25 l 2.175,-58.602 -1.691,-0.004 z m 18.918,-66.844 c 0,-2.367 -1.981,-4.41 -4.41,-4.41 l -13.531,-0.02 c -2.45,-0.008 -4.43,1.961 -4.43,4.402 0,2.399 1.972,4.415 4.414,4.422 l 13.539,0.016 c 2.437,0.004 4.418,-1.981 4.418,-4.41 z m -8.274,-32.039 c 0,-1.61 -1.179,-2.91 -2.867,-2.91 -1.578,-0.004 -2.879,1.304 -2.879,2.906 l -1.187,24.004 h 1.5 l 0.855,-23.215 c 0,-1.75 0.813,-2.106 0.813,-2.106 l -0.449,25.321 5.293,0.008 z m -22.246,130.965 c 0,3.16 1.286,5.789 2.645,8.566 1.656,3.387 3.5,7.133 2.617,11.875 1.754,-0.664 3.957,-1.844 5.871,-3.758 -1.219,-1.469 -2.551,-2.91 -3.293,-3.797 -5.105,-6.093 -7.078,-13.343 -1.59,-21.429 h -0.785 c -0.054,0.011 -5.461,1.933 -5.465,8.543 z m 18.082,26.808 c 4.579,-3.699 10.223,-10.668 10.235,-18.676 0,-7.23 -6.192,-15.527 -7.684,-16.593 -1.195,1.621 -2.683,4.652 -2.691,8.093 -0.008,5.965 2.906,9.457 2.906,9.457 0,0 -4.309,-2.777 -4.937,-8.296 -0.305,-2.7 0.281,-5.528 2.113,-9.254 h -2.625 c -0.695,1.125 -5.738,7.422 -1.543,14.531 0.703,1.168 3.859,5.738 4.258,6.668 0.492,1.125 0.441,2.183 0.441,2.183 -0.523,-0.855 -1.43,-1.871 -1.43,-1.871 -0.906,-0.996 -3.996,-4.199 -4.972,-5.379 -6.028,-7.32 -0.16,-15.46 0.121,-16.144 -0.313,0 -2.445,0 -2.445,0 -2.688,3.07 -3.579,6.062 -3.309,10.562 0.601,10.114 12.781,11.383 11.562,24.719 z m 16.84,-8.574 c -1.25,-7.613 1.024,-13.836 1.399,-14.773 2.14,-7.7 -3.668,-11.254 -4.957,-11.942 l -0.18,0.035 -5.84,-0.008 c 3.649,4.778 6.567,11.02 6.567,16.586 -0.008,1.696 -0.184,3.297 -0.504,4.836 l -0.489,1.633 c 1.481,1.719 2.864,2.902 4.004,3.633 z m 1.02,-28.047 c 3.086,2.774 5.906,7.594 3.957,14.402 l -0.078,0.204 c -0.032,0.066 -3.09,7.64 -0.434,16.074 l 0.887,2.789 -2.903,-0.363 c -0.414,-0.047 -3.824,-0.586 -7.96,-4.75 -3.442,6.972 -10.028,12.171 -16.864,15.597 2.508,-8 2.84,-10.933 0.782,-14.347 -4.676,4.351 -10.356,5.191 -10.614,5.222 l -3.289,0.453 1.328,-3.054 c 2.106,-4.875 0.45,-8.258 -1.484,-12.196 -1.414,-2.898 -3.031,-6.183 -3.031,-10.23 0.007,-5.317 2.711,-8.719 5.257,-10.574 -1.785,-1.625 -2.937,-4 -2.925,-6.61 0,-3.351 1.707,-6.265 4.304,-7.715 0.848,-2.617 2.68,-4.773 5.063,-6.043 L 477.531,375 c -3.648,-0.766 -6.375,-4.035 -6.367,-7.855 0,-4.133 3.141,-7.547 7.145,-7.961 l 1.207,-24.114 c 0,-3.566 2.898,-6.457 6.472,-6.453 3.727,0 6.43,2.899 6.473,6.391 l 1.086,24.187 c 4.055,0.426 7.187,3.942 7.172,7.985 0,3.902 -2.785,7.156 -6.469,7.855 l 2.672,60.016 c 2.519,1.258 4.465,3.504 5.32,6.242 2.598,1.523 4.266,4.555 4.266,7.672 -0.008,2.937 -1.567,5.75 -3.957,7.324"
	         style="fill:#ffffff;fill-opacity:1;fill-rule:nonzero;stroke:none"
	         transform="matrix(0.13333333,0,0,-0.13333333,0,123.84)" />
	      <path
	         id="path8"
	         d="m 428.656,432.066 -33.144,-0.039 c -4.317,-0.007 -7.824,3.504 -7.828,7.817 -0.012,4.32 3.496,7.824 7.808,7.832 l 33.145,0.043 c 0.586,0 1.148,-0.071 1.687,-0.192 l 0.043,-0.07 c 0,0 0.039,0.02 0.09,0.051 3.438,-0.828 6.008,-3.918 6.012,-7.606 0,-4.308 -3.492,-7.836 -7.813,-7.836 z m -6.652,-8.468 -20.199,-0.02 c -3.215,0 -5.996,1.945 -7.2,4.731 0.301,-0.02 0.602,-0.036 0.907,-0.036 l 33.156,0.036 c 0.379,0 0.754,0.015 1.117,0.054 -1.25,-2.75 -4.308,-4.754 -7.781,-4.765 z m -2.453,-86.981 -9.633,-0.015 -1.027,83.218 13.125,0.024 c 0.464,0 0.91,0.027 1.367,0.078 z m 8.906,-10.222 c 0,-3.575 -2.898,-6.497 -6.477,-6.5 l -19.265,-0.028 c -3.574,0 -6.485,2.914 -6.488,6.485 0,3.578 2.898,6.488 6.464,6.488 l 19.274,0.027 c 3.57,0.004 6.48,-2.894 6.492,-6.472 z m -11.414,-44.18 c 0.012,-2.727 -2.207,-4.953 -4.93,-4.953 -2.73,0 -4.941,2.215 -4.965,5.031 l -1.543,33.828 3.043,0.004 1.278,-33.055 c 0,-2.433 1.129,-2.929 1.129,-2.929 l -0.575,35.984 8.129,0.02 z m -12.57,137.605 3.484,-83.218 -3.293,-0.004 -3.812,83.261 c 0.312,-0.031 0.632,-0.046 0.953,-0.046 z m -19.766,43.668 c -0.016,4.555 1.813,8.262 3.738,12.2 2.508,5.105 5.082,10.363 3.313,17.261 2.722,-0.875 6.726,-2.699 10.047,-6.195 -0.817,-1.016 -1.723,-1.992 -2.692,-3.039 -0.722,-0.797 -1.476,-1.613 -2.273,-2.508 -1.125,-1.137 -13.301,-13.988 -2.981,-29.914 -0.437,-0.059 -0.859,-0.141 -1.281,-0.25 -1.172,0.473 -7.859,3.586 -7.871,12.445 z m 24.356,28.492 c 1.148,3.204 0.957,6.891 0.484,9.782 5.723,-4.422 15.637,-13.797 15.719,-25.723 0.089,-12.105 -7.77,-21.465 -10.77,-24.574 l -0.512,-0.008 c -1.64,2.254 -3.671,6.41 -3.671,11.137 -0.024,8.269 4.015,13.113 4.015,13.113 0,0 -5.961,-3.867 -6.836,-11.5 -0.422,-3.73 0.383,-7.637 2.871,-12.75 h -3.625 c -1.129,1.731 -7.843,10.332 -2.093,20.051 0.964,1.629 5.332,7.957 5.898,9.246 0.684,1.57 0.598,3.039 0.598,3.039 -0.707,-1.188 -1.981,-2.605 -1.981,-2.605 -1.254,-1.391 -5.531,-5.825 -6.887,-7.465 -8.179,-9.93 -0.535,-20.977 0.137,-22.278 l -4.062,-0.011 c -11.371,14.855 0.617,26.609 1.156,27.125 l 0.125,0.129 c 0.773,0.886 1.523,1.691 2.242,2.468 2.914,3.16 5.426,5.891 7.192,10.824 z m 25.761,-1.781 c -2.324,-11.187 1.156,-20.504 1.629,-21.695 2.883,-10.219 -3.973,-15.469 -6.648,-17.09 -0.383,0.043 -0.774,0.063 -1.168,0.063 l -9.086,-0.012 c 3.922,4.765 9.551,13.535 9.465,24.605 -0.016,2.86 -0.512,5.559 -1.336,8.118 2.758,3.23 5.3,5.035 7.144,6.011 z m -0.594,-40.164 c 3.813,3.215 8.692,9.516 5.809,19.61 l -0.07,0.199 c -0.055,0.113 -4.399,10.91 -0.633,22.785 l 0.883,2.785 -2.899,-0.359 c -0.234,-0.032 -5.242,-0.715 -11.191,-6.992 -5.723,11.937 -17.981,19.328 -18.664,19.722 l -4.492,2.656 1.785,-4.914 c 0.722,-1.996 2.269,-8.086 0.773,-12.277 -0.457,-1.27 -0.976,-2.355 -1.543,-3.352 -6.402,6.364 -14.523,7.504 -14.886,7.551 l -3.293,0.434 1.332,-3.039 c 3.062,-7.043 0.691,-11.895 -2.055,-17.504 -2.031,-4.141 -4.137,-8.43 -4.125,-13.852 0.004,-7.461 3.969,-12.113 7.48,-14.48 -2.742,-2.125 -4.519,-5.438 -4.511,-9.164 0.004,-4.551 2.644,-8.481 6.465,-10.375 0.652,-3.856 3.199,-7.059 6.656,-8.621 l 3.871,-84.422 c -4.805,-0.848 -8.453,-5.051 -8.449,-10.078 0.011,-5.352 4.136,-9.746 9.375,-10.196 l 1.558,-33.957 c 0,-4.793 3.914,-8.699 8.707,-8.687 4.793,0 8.696,3.914 8.684,8.625 l 1.566,34.019 c 5.469,0.223 9.848,4.719 9.848,10.246 -0.012,5.192 -3.898,9.469 -8.906,10.125 l 3.883,84.457 c 3.625,1.629 6.289,4.883 6.863,8.668 3.676,1.946 6.179,5.817 6.168,10.266 0,4.352 -2.426,8.149 -5.989,10.121"
	         style="fill:#ffffff;fill-opacity:1;fill-rule:nonzero;stroke:none"
	         transform="matrix(0.13333333,0,0,-0.13333333,0,123.84)" />
	      <path
	         id="path9"
	         d="m 393.691,439.734 c -0.957,2.375 0.25,4.672 0.672,4.993 0,0 -4.679,-0.805 -3.543,-6.02 0.868,-4.012 3.633,-4.434 7.172,-4.422 l 30.012,0.035 c 0,0 3.508,-0.328 4.84,2.996 l -33.559,-0.039 c -2.957,-0.011 -4.73,0.289 -5.594,2.457"
	         style="fill:#ffffff;fill-opacity:1;fill-rule:nonzero;stroke:none"
	         transform="matrix(0.13333333,0,0,-0.13333333,0,123.84)" />
	      <path
	         id="path10"
	         d="m 401.141,326.156 c -0.75,1.891 0.203,3.692 0.535,3.946 0,0 -3.692,-0.633 -2.805,-4.754 0.695,-3.168 2.875,-3.489 5.676,-3.485 l 16.359,0.02 c 0,0 2.762,-0.254 3.801,2.355 l -19.152,-0.023 c -2.328,0 -3.731,0.238 -4.414,1.941"
	         style="fill:#ffffff;fill-opacity:1;fill-rule:nonzero;stroke:none"
	         transform="matrix(0.13333333,0,0,-0.13333333,0,123.84)" />
	      <path
	         id="path11"
	         d="M 551.84,412.004 C 529.969,358.625 488.109,285.582 412.645,239.551 337.043,285.383 294.98,358.336 272.992,411.648 c -20.258,49.09 -27.66,90.797 -29.531,103.055 9.031,5.082 18.035,7.543 28.223,7.555 0.023,0 0.054,0 0.082,0 7.132,0 17.214,-1.313 22.988,-2.988 l 3.504,-1.028 c 2.933,-0.859 5.976,-1.754 9.066,-2.625 v -0.004 c 11.164,-3.195 23.856,-6.465 33.383,-6.465 0.02,0 0.043,0 0.066,0 10.684,0.016 27.344,1.415 46.067,8.016 5.332,1.883 11.691,3.922 18.504,4.816 l 6.164,0.446 c 0.121,0.008 0.242,0.008 0.363,0.008 l 9.527,-0.86 c 5.786,-0.984 11.243,-2.742 15.825,-4.336 18.644,-6.531 35.289,-7.914 45.996,-7.914 0.035,0 0.066,0 0.105,0 6.449,0.012 14.848,1.473 26.442,4.598 v -0.004 c 4.824,1.293 9.695,2.738 14.324,4.109 l 5.199,1.536 c 5.738,1.671 16.234,3.035 23.402,3.046 0.016,0 0.036,0 0.051,0 10.168,0 19.465,-2.464 28.387,-7.296 -1.793,-12.016 -9.055,-53.926 -29.289,-103.309 z M 344.402,561.039 c -2.339,-5.793 -4.007,-11.957 -4.824,-18.43 -8.539,0.344 -19.89,3.262 -30.035,6.157 l -12.539,3.648 c -6.344,1.848 -16.969,3.238 -24.742,3.238 -0.032,0 -0.067,0 -0.094,0 -11.184,-0.015 -22.816,-2.672 -32.664,-7.375 -0.441,6.176 -0.805,13.141 -0.965,20.739 z M 238.797,594.125 348.793,570.02 c -0.965,-1.676 -1.859,-3.403 -2.691,-5.172 l -107.657,14.398 c 0.016,4.758 0.149,9.77 0.352,14.879 z m 3.789,40.215 114.258,-52.965 c -2.168,-2.52 -4.219,-5.141 -6.035,-7.945 l -111.454,31.25 c 0.649,9.519 1.696,19.461 3.231,29.66 z m 3.016,17.14 c 4.414,-0.96 13.144,-2.652 24.421,-3.839 l 92.797,-60.078 c -1.246,-1.137 -2.472,-2.29 -3.629,-3.508 l -114.703,61.449 c 0.371,2 0.692,3.973 1.114,5.976 z m 49.378,-5.164 c 11.922,0.008 23.172,1.016 33.641,2.981 l 46.824,-52.492 c -3.547,-2.055 -6.886,-4.403 -10.023,-7.004 l -77.305,56.625 c 2.25,-0.063 4.516,-0.121 6.863,-0.11 z m 59.75,10.079 31.047,-54.594 c -2.101,-0.809 -4.16,-1.719 -6.168,-2.711 l -39.488,52.824 c 5.117,1.367 9.984,2.871 14.609,4.481 z m 41.079,19.832 9.449,-69.872 c -5.235,-0.492 -10.281,-1.585 -15.141,-3.109 l -26.039,56.664 c 13.012,5.266 23.66,11.149 31.731,16.317 z m 16.289,11.945 c 2.316,-1.949 4.664,-3.793 7.023,-5.567 l -4.207,-76.046 c -0.887,0.035 -1.746,0.125 -2.641,0.125 -0.035,0 -0.066,0 -0.097,0 -0.926,0 -1.821,-0.098 -2.735,-0.129 l -4.214,76.172 c 3.035,2.257 5.371,4.156 6.871,5.445 z m 16.23,-11.945 c 11.102,-7.184 22.086,-12.489 31.496,-16.286 L 433.82,603.352 c -4.804,1.492 -9.793,2.55 -14.941,3.019 z m 40.856,-19.789 c 6.636,-2.286 11.836,-3.692 14.683,-4.372 L 444.34,599.195 c -2.012,0.993 -4.074,1.883 -6.184,2.696 z m 26.425,-6.762 c 11.59,-2.031 23.61,-3.09 35.899,-3.074 1.484,0 2.879,0.05 4.312,0.086 l -77.347,-56.672 c -3.118,2.558 -6.434,4.859 -9.934,6.882 z m 58.133,-1.922 c 11.688,1.187 20.457,3.012 24.879,4.09 0.422,-2.004 0.75,-3.989 1.133,-5.992 L 464.789,584.266 c -1.18,1.214 -2.398,2.39 -3.656,3.523 z m 27.942,-13.102 c 1.601,-10.425 2.683,-20.582 3.347,-30.293 l -111.355,-31.23 c -1.942,2.984 -4.125,5.789 -6.469,8.453 z m 4.265,-55.558 -107.605,-14.387 c -0.824,1.727 -1.711,3.426 -2.664,5.082 l 109.918,24.082 c 0.203,-5.086 0.343,-10.043 0.351,-14.777 z m -76.515,-35.012 -0.817,3.035 c -6.672,-1.793 -16.215,-4.129 -23.707,-4.347 -0.828,6.367 -2.512,12.449 -4.867,18.191 l 105.832,7.973 c -0.148,-7.289 -0.473,-13.981 -0.887,-19.954 -9.64,4.504 -20.961,7.036 -31.769,7.036 -0.02,0 -0.039,0 -0.063,0 -6.828,-0.012 -18.086,-1.25 -25.113,-3.297 l -4.836,-1.426 c -4.707,-1.395 -9.66,-2.867 -14.586,-4.176 z m -96.918,11.758 -0.024,-0.477 -0.008,0.477 c -2.488,-0.016 -4.968,-0.188 -7.394,-0.504 v -0.008 c -7.356,-0.93 -14.156,-3.105 -19.848,-5.113 -15.336,-5.414 -29.226,-7.16 -39.332,-7.563 4.586,33.075 32.516,57.703 66.27,57.746 0.031,0 0.062,0 0.093,0 33.329,0 61.614,-24.945 66.305,-57.546 -10.043,0.414 -23.699,2.152 -38.793,7.437 -4.512,1.582 -10.515,3.531 -16.91,4.633 l -0.039,-0.231 0.031,0.231 c -3.625,0.617 -7.012,0.918 -10.351,0.918 z m -71.282,-19.582 c 0.016,0 0.036,0 0.047,0 7.469,0.019 17.887,0.758 29.821,3.418 5.168,1.152 10.593,2.625 16.234,4.617 5.367,1.895 11.769,3.945 18.527,4.805 l 6.586,0.453 9.418,-0.836 c 5.926,-1.024 11.578,-2.863 15.848,-4.356 6.918,-2.425 13.547,-4.132 19.707,-5.328 10.457,-2.031 19.539,-2.586 26.269,-2.586 0.039,0 0.075,0 0.11,0 6.461,0 14.617,1.422 26.445,4.598 4.973,1.332 9.984,2.812 14.738,4.219 l 4.817,1.422 c 5.719,1.671 16.203,3.035 23.371,3.046 0.016,0 0.031,0 0.047,0 10.758,0 21.976,-2.8 31.238,-7.589 -0.223,-2.508 -0.445,-4.84 -0.672,-6.977 -9.601,4.801 -20.25,7.34 -31.043,7.34 -0.031,0 -0.062,0 -0.086,0 -6.883,-0.016 -18.168,-1.25 -25.136,-3.297 l -5.176,-1.527 c -4.594,-1.364 -9.422,-2.793 -14.215,-4.078 -7.07,-1.887 -17.293,-4.243 -24.984,-4.375 -10.2,0 -26.032,1.316 -43.872,7.558 -2.21,0.77 -4.789,1.633 -7.57,2.438 -2.937,0.847 -6.098,1.636 -9.351,2.187 -3.602,0.617 -6.985,0.918 -10.368,0.918 -2.484,-0.012 -4.898,-0.176 -7.386,-0.512 v 0.004 c -3.879,-0.488 -7.586,-1.336 -11.082,-2.312 -3.125,-0.875 -6.086,-1.852 -8.778,-2.805 -17.902,-6.308 -33.8,-7.652 -43.98,-7.668 -0.024,0 -0.043,0 -0.063,0 -8.675,0 -20.875,3.145 -31.66,6.223 l -12.531,3.648 c -6.356,1.848 -16.953,3.231 -24.715,3.231 -0.043,0 -0.09,0 -0.141,0 -10.777,-0.008 -21.386,-2.532 -30.933,-7.321 -0.223,2.059 -0.445,4.286 -0.656,6.672 9.437,4.996 21,7.867 32.117,7.879 0.027,0 0.054,0 0.082,0 7.152,0 17.23,-1.308 23.004,-2.988 l 12.551,-3.656 0.863,3.019 -0.86,-3.019 c 11.786,-3.36 23.985,-6.465 33.418,-6.465 z m 167.719,-19.305 -0.812,3.031 c -11.051,-2.976 -18.942,-4.367 -24.828,-4.375 -0.032,0 -0.067,0 -0.102,0 -10.219,0 -26.098,1.317 -43.922,7.559 -4.851,1.691 -10.648,3.559 -16.91,4.617 -6.383,1.082 -11.875,1.207 -17.785,0.438 -7.41,-0.965 -14.188,-3.137 -19.84,-5.137 -17.891,-6.305 -33.797,-7.637 -43.988,-7.652 -0.024,0 -0.039,0 -0.059,0 -8.746,0 -20.906,3.14 -31.652,6.222 l -0.867,-3.019 0.851,3.019 c -3.066,0.871 -6.098,1.758 -9.016,2.621 l -3.515,1.028 c -6.363,1.843 -16.977,3.234 -24.738,3.234 -0.032,0 -0.063,0 -0.094,0 -10.528,-0.008 -19.914,-2.309 -29.231,-7.168 -0.242,1.578 -0.574,3.832 -0.937,6.676 9.211,5.051 19.566,7.797 30.152,7.805 0.043,0 0.086,0 0.125,0 7.141,0 17.195,-1.305 22.965,-2.981 l 12.543,-3.656 0.871,3.019 -0.859,-3.019 c 11.773,-3.36 23.965,-6.465 33.39,-6.465 0.02,0 0.047,0 0.071,0 10.672,0.02 27.324,1.426 46.054,8.027 5.379,1.899 11.793,3.946 18.543,4.805 l 6.137,0.457 c 0.125,0 0.242,0.004 0.371,0.004 l 9.496,-0.84 c 5.828,-1.004 11.281,-2.762 15.836,-4.351 18.664,-6.532 35.254,-7.911 45.93,-7.911 0.058,0 0.113,0 0.164,0 6.441,0 14.598,1.414 26.453,4.586 4.852,1.301 9.73,2.746 14.379,4.125 l 5.16,1.52 c 5.664,1.668 16.149,3.031 23.379,3.051 0.023,0 0.051,0 0.078,0 10.594,0 21.016,-2.731 30.27,-7.793 -0.344,-2.715 -0.653,-4.879 -0.895,-6.442 -9.238,4.633 -18.898,6.907 -29.379,6.907 -0.019,0 -0.039,0 -0.062,0 -6.825,-0.012 -18.102,-1.25 -25.149,-3.297 l -5.226,-1.543 c -4.578,-1.36 -9.391,-2.785 -14.16,-4.067 z m 82.887,78.285 -0.617,10.856 c -0.711,10.039 -1.91,20.562 -3.618,31.308 l -1.207,7.301 c -0.703,3.867 -1.457,7.766 -2.312,11.684 l -0.723,3.269 -3.215,-0.933 c -0.101,-0.032 -5.296,-1.512 -14.043,-2.969 l -21.207,-2.414 c -4.207,-0.274 -8.679,-0.445 -13.402,-0.461 -12.34,-0.008 -24.418,1.105 -36.066,3.226 l -7.446,1.469 c -0.129,0.031 -0.269,0.051 -0.402,0.071 -0.148,0.039 -6.117,1.308 -15.215,4.402 l -9.887,3.676 c -9.878,3.957 -21.597,9.66 -33.222,17.449 l -9.719,7.066 c -1.809,1.442 -3.617,2.918 -5.394,4.481 l -2.161,1.883 -2.066,-1.969 c -0.066,-0.067 -1.813,-1.703 -5.117,-4.301 l -9.926,-7.152 c -8.109,-5.379 -19.387,-11.84 -33.43,-17.528 l -9.886,-3.695 c -4.778,-1.633 -9.786,-3.176 -15.082,-4.523 -0.133,-0.039 -0.274,-0.055 -0.407,-0.09 l -8.582,-1.871 c -10.101,-1.883 -20.98,-2.864 -32.508,-2.879 -5.636,0 -11.015,0.215 -16.066,0.578 l -21.242,2.469 c -8.402,1.347 -13.586,2.656 -13.692,2.679 l -3.156,0.797 -0.695,-3.176 c -0.68,-3.14 -1.254,-6.253 -1.836,-9.371 l -1.621,-9.492 c -1.645,-10.523 -2.797,-20.82 -3.492,-30.66 l -0.614,-10.926 c -0.226,-5.324 -0.343,-10.461 -0.367,-15.418 l 0.078,-10.582 c 0.594,-29.742 4.133,-50.258 4.418,-51.91 0.328,-2.527 6.621,-50.426 30.41,-108.168 22.368,-54.211 65.141,-128.437 142.204,-175.203 l 3.347,-2.012 3.321,2.012 c 76.937,46.969 119.531,121.309 141.734,175.578 23.656,57.809 29.828,105.723 30.133,108.254 0.285,1.637 3.726,21.918 4.297,51.363 l 0.058,10.52 c -0.019,4.933 -0.136,10.023 -0.359,15.312"
	         style="fill:#ffffff;fill-opacity:1;fill-rule:nonzero;stroke:none"
	         transform="matrix(0.13333333,0,0,-0.13333333,0,123.84)" />
	    </g>
	</g>
</svg>
