<svg version="1.1" id="Layer_1" xmlns="http://www.w3.org/2000/svg" xmlns:xlink="http://www.w3.org/1999/xlink" x="0px" y="0px"
	 viewBox="30 -30 140 140" xml:space="preserve">
<g>
  <path style="fill:#ffffff" d="M108.92,16.7c-6.48,0-12.45,3.55-15.53,9.26l-3.8,7.02l-0.44,0.82l-0.43,0.79v0L77.25,55.8L58.51,20.78h8.33
    l6.71,12.47l3.52,6.54l3.63-6.48l7.03-12.54h6.08c1.47-1.63,3.18-3.01,5.07-4.08H85.35l-8.2,14.62L69.28,16.7H51.7l25.52,47.71
    l14.21-26.26l2.36-4.35l0.44-0.82l2.73-5.05c0.15-0.28,0.31-0.54,0.47-0.81c1.82-2.88,4.64-4.95,7.87-5.84
    c0.88-0.24,1.79-0.4,2.72-0.47c0.31-0.02,0.62-0.03,0.93-0.03h37.2l-3.76,7h-17.21l-1.15,2.16l-15.92,29.92h-8.44l13.97-25.94
    l3.24-6.02h-16.76C99.15,29.43,97.78,32,97.78,32h12.25L92.83,63.95h17.73l17.08-32.09h17.2l8.14-15.16H108.92z"/>
</g>
</svg>
