<svg version="1.1" id="svg2" viewBox="0 0 60 51.333332" xmlns="http://www.w3.org/2000/svg" xmlns:svg="http://www.w3.org/2000/svg">
  <g id="g8" transform="matrix(1.3333333,0,0,-1.3333333,0,51.333333)">
    <path d="M 0,0 H 128.5 V 38.5 H 0 Z" style="fill-opacity:0;stroke:none" id="path10"/>
    <g id="g12" transform="translate(23.5704,19.5894)">
      <path d="m 0,0 v -14.001 h 1.845 v 9.34 L 6.382,-9.48 h 0.832 l 4.536,4.819 v -9.34 h 1.846 V 0.003 L 6.812,-7.25 Z" style="fill:#005239;fill-opacity:1;fill-rule:nonzero;stroke:none" id="path14"/>
    </g>
    <g id="g16" transform="translate(35.811,23.5022)">
      <path d="M 0,0 -5.429,-5.803 -10.873,0 h -8.783 v -1.787 h 7.941 l 6.287,-6.695 6.267,6.695 H 3.22 V -17.913 H 5.066 L 5.066,0 Z" style="fill:#005239;fill-opacity:1;fill-rule:nonzero;stroke:none" id="path18"/>
    </g>
    <g>
      <g clip-path="url(#clipPath26)">
        <g transform="translate(16.548,12.4585)">
          <path d="m 0,0 c -5.126,0 -9.296,4.197 -9.296,9.355 0,5.159 4.17,9.356 9.296,9.356 2.255,0 4.407,-0.823 6.223,-2.379 L 6.525,16.073 7.621,17.49 7.355,17.721 C 5.261,19.537 2.718,20.497 0,20.497 c -6.144,0 -11.142,-4.998 -11.142,-11.142 0,-6.143 4.998,-11.141 11.142,-11.141 1.129,0 2.24,0.169 3.312,0.505 V -6.87 H 5.157 V 1.555 L 4.57,1.221 C 3.165,0.422 1.585,0 0,0" style="fill:#005239;fill-opacity:1;fill-rule:nonzero;stroke:none" id="path30"/>
        </g>
        <g transform="translate(16.1554,18.2112)">
          <path d="M 0,0 H 3.77 V -1.153 C 2.794,-1.89 1.687,-2.248 0.393,-2.248 c -3.133,0 -5.586,2.57 -5.586,5.851 0,3.28 2.453,5.85 5.586,5.85 1.508,0 2.747,-0.476 4.142,-1.592 L 4.831,7.624 5.921,9.033 5.655,9.261 c -1.511,1.294 -3.331,1.979 -5.262,1.979 -4.098,0 -7.431,-3.426 -7.431,-7.637 0,-4.212 3.333,-7.638 7.431,-7.638 1.76,0 3.591,0.7 5.025,1.92 l 0.138,0.117 V 1.787 L 0,1.787 Z" style="fill:#005239;fill-opacity:1;fill-rule:nonzero;stroke:none"/>
        </g>
        <g transform="translate(36.6501,21.7155)">
          <path d="M 0,0 -6.267,-6.695 -12.554,0 h -7.941 v -1.718 h 5.557 v -3.784 l -0.139,-0.118 c -1.433,-1.219 -3.265,-1.919 -5.025,-1.919 -4.098,0 -7.431,3.426 -7.431,7.637 0,4.211 3.333,7.638 7.431,7.638 1.932,0 3.751,-0.685 5.262,-1.98 l 0.266,-0.228 0.997,1.288 -0.302,0.258 c -1.816,1.557 -3.968,2.38 -6.223,2.38 -5.126,0 -9.296,-4.197 -9.296,-9.356 0,-5.158 4.17,-9.355 9.296,-9.355 1.585,0 3.165,0.422 4.57,1.221 l 0.587,0.334 v -8.425 h 1.865 v 14.001 l 6.812,-7.25 6.784,7.253 V -16.127 H 2.381 L 2.381,0 Z" style="fill:#ffc733;fill-opacity:1;fill-rule:nonzero;stroke:none"/>
        </g>
      </g>
    </g>
  </g>
</svg>
